<svg width="38" height="38" viewBox="0 0 38 38" fill="none" xmlns="http://www.w3.org/2000/svg">
<g clip-path="url(#clip0_1_1619)">
<path d="M28.4997 9.50033H25.333C25.333 6.00116 22.4988 3.16699 18.9997 3.16699C15.5005 3.16699 12.6663 6.00116 12.6663 9.50033H9.49967C7.75801 9.50033 6.33301 10.9253 6.33301 12.667V31.667C6.33301 33.4087 7.75801 34.8337 9.49967 34.8337H28.4997C30.2413 34.8337 31.6663 33.4087 31.6663 31.667V12.667C31.6663 10.9253 30.2413 9.50033 28.4997 9.50033ZM18.9997 6.33366C20.7413 6.33366 22.1663 7.75866 22.1663 9.50033H15.833C15.833 7.75866 17.258 6.33366 18.9997 6.33366ZM28.4997 31.667H9.49967V12.667H12.6663V15.8337C12.6663 16.7045 13.3788 17.417 14.2497 17.417C15.1205 17.417 15.833 16.7045 15.833 15.8337V12.667H22.1663V15.8337C22.1663 16.7045 22.8788 17.417 23.7497 17.417C24.6205 17.417 25.333 16.7045 25.333 15.8337V12.667H28.4997V31.667Z" fill="#002F52"/>
</g>
<defs>
<clipPath id="clip0_1_1619">
<rect width="38" height="38" fill="white"/>
</clipPath>
</defs>
</svg>
